<svg xmlns="http://www.w3.org/2000/svg" viewBox="0 0 320 360" height="360" width="320">
 <defs id="SvgjsDefs1270"></defs><g id="SvgjsG1271" featurekey="symbolFeature-0" transform="matrix(0.6449116784127552,0,0,0.6449116784127552,45,0)" fill="#fff"><path xmlns="http://www.w3.org/2000/svg" d="M74.244,0.089c-5.195,0-9.898,2.069-13.299,5.413c-3.4-3.344-8.093-5.413-13.274-5.413c-5.789,0-10.963,2.586-14.41,6.645  C29.815,2.627,24.618,0,18.788,0C8.414,0,0,8.292,0,18.52c0,10.229,8.414,18.522,18.788,18.522c5.788,0,10.946-2.59,14.387-6.648  c3.447,4.115,8.661,6.738,14.496,6.738c5.229,0,9.958-2.111,13.364-5.51c3.396,3.293,8.058,5.33,13.209,5.33  c10.378,0,18.792-8.252,18.792-18.431C93.036,8.34,84.622,0.089,74.244,0.089z M18.646,34.397c-8.631,0-15.633-6.984-15.633-15.601  c0-8.612,7.002-15.596,15.633-15.596c5.185,0,9.765,2.532,12.61,6.408c-1.508,2.667-2.375,5.733-2.375,9.001  c0,3.354,0.918,6.491,2.5,9.204C28.549,31.792,23.91,34.397,18.646,34.397z M47.528,34.487c-8.63,0-15.633-6.984-15.633-15.602  c0-8.612,7.002-15.596,15.633-15.596c4.42,0,8.404,1.838,11.248,4.778c-2.09,2.971-3.32,6.569-3.32,10.453  c0,4.062,1.355,7.806,3.624,10.851C56.22,32.507,52.111,34.487,47.528,34.487z M74.244,24.579c-3.8,0-6.882-2.866-6.882-6.397  c0-3.531,3.082-6.396,6.882-6.396c3.801,0,6.886,2.865,6.886,6.396C81.129,21.713,78.044,24.579,74.244,24.579z"></path><path xmlns="http://www.w3.org/2000/svg" d="M74.28,13.168c-2.983,0-5.406,2.266-5.406,5.057c0,2.794,2.423,5.062,5.406,5.062c2.985,0,5.401-2.268,5.401-5.062  C79.681,15.434,77.265,13.168,74.28,13.168z M74.28,19.889c-1.095,0-1.977-0.785-1.977-1.755c0-0.967,0.882-1.755,1.977-1.755  c1.093,0,1.979,0.788,1.979,1.755C76.258,19.104,75.373,19.889,74.28,19.889z"></path><polygon xmlns="http://www.w3.org/2000/svg" points="41.501,12.57 41.471,18.61 41.444,24.649 47.672,21.657 53.9,18.665 47.7,15.618 "></polygon><path xmlns="http://www.w3.org/2000/svg" d="M21.245,22.222l-4.521-8.254c0.918-0.999,1.17-2.491,0.518-3.757c-0.624-1.206-1.893-1.86-3.176-1.767l1.618,3.131  l-2.421,1.254l-1.602-3.101c-0.774,0.992-0.955,2.374-0.345,3.555c0.642,1.242,1.971,1.898,3.293,1.756l4.614,8.422  c-0.77,0.992-0.948,2.369-0.339,3.547c0.623,1.207,1.893,1.861,3.175,1.768l-1.618-3.131l2.421-1.254l1.602,3.102  c0.774-0.992,0.955-2.375,0.346-3.557C24.123,22.61,22.653,21.95,21.245,22.222z"></path></g><g id="SvgjsG1272" featurekey="nameFeature-0" transform="matrix(2.5561499655304334,0,0,2.5561499655304334,4.396585631764917,11.383528292509943)" fill="#111"><path d="M3.6 21.52 l0 -0.08 s0.16 -0.2 0.28 -0.32 c1.28 0.24 2.44 1.04 2.44 2.44 c0 0.2 -0.04 0.44 -0.12 0.6 l-1.24 2.88 c0.12 -0.16 0.64 -0.84 0.76 -0.96 c0.2 -0.28 1.24 -1.52 1.48 -1.76 c0.96 -1.2 3.04 -3.12 4.52 -3.12 c1.2 0 1.76 0.96 1.76 2.08 c0 0.88 -0.28 1.72 -0.72 2.52 l-1.72 3.28 c0.04 -0.08 0.32 -0.36 0.36 -0.4 l4.04 -4.04 l1.44 -1.24 c0.08 -0.08 0.76 -0.6 0.96 -0.76 c0.96 -0.64 2.12 -1.4 3.32 -1.4 c0.92 0 1.56 0.44 1.56 1.4 c0 0.72 -0.84 3.36 -1.4 3.92 l-2.36 4 c-0.48 0.84 -0.92 1.92 -0.92 2.88 c0 0.36 0 0.96 0.4 1.12 l0.12 0 c1.12 0 2.24 -1.16 2.88 -1.92 c0.12 -0.12 0.6 -0.64 0.68 -0.72 c0.2 -0.28 0.92 -1.2 1 -1.32 l3.92 -5.72 c0.16 -0.24 0.28 -0.4 0.28 -0.68 l0.2 0 c0.32 0 0.52 0 0.72 0.32 c0.04 0.04 0.08 0.12 0.08 0.2 c0 0.04 0 0.04 -0.04 0.08 c-0.08 0.24 -0.44 0.76 -0.44 0.8 l-2.44 3.8 l-2.36 3.24 c-1 1.52 -3.44 3.72 -5.24 3.72 c-2 0 -3.12 -1.16 -3.12 -3.12 c0 -1.32 0.48 -2.56 1.08 -3.68 l1.8 -3.36 c0.16 -0.32 0.36 -0.68 0.36 -1.04 c0 -0.04 0 -0.12 -0.04 -0.16 l-0.08 0 c-0.52 0 -1.8 0.76 -2.24 1.2 c-0.28 0.24 -1.08 0.92 -1.16 1 l-2 1.96 l-2.6 2.84 l-1.72 2.36 c-0.36 0.48 -0.84 0.64 -1.44 0.64 c-0.8 0 -2.12 0 -2.12 -1.16 c0 -0.12 0 -0.24 0.04 -0.32 l4.16 -7.92 c0.08 -0.16 0.2 -0.44 0.24 -0.64 c-0.8 0.32 -1.48 1.08 -2.04 1.68 c-0.24 0.28 -0.88 1 -0.96 1.08 l-1.4 1.76 l-1.2 1.8 c-0.2 0.28 -0.48 0.76 -0.64 1.12 l-0.88 2.28 c0 0.04 0 0.04 -0.04 0.08 c-0.36 0.2 -0.76 0.36 -1.2 0.36 c-0.88 0 -1.76 -0.44 -2.32 -1.08 l0 -0.12 c0 -1 0.92 -3.72 1.32 -4.6 l0.96 -2.2 z M11 29.08 l0 0.04 c0.04 0 0.04 -0.04 0 -0.04 z M4.96 27.08 l0 -0.04 c-0.04 0 -0.04 0.04 0 0.04 z M42.041 15.079999999999998 c1.56 0 3.12 -0.28 4.24 -1.44 c0.32 -0.36 0.44 -0.88 1 -0.88 c0.32 0 0.52 0.28 0.52 0.6 l0 0.08 c-1.88 3.16 -5.28 5.04 -8.96 5.04 c-0.72 0 -1.44 -0.08 -2.16 -0.12 l-0.12 0 l-2.44 6.72 l-0.12 0.44 l-4.96 13.24 c-0.76 2.04 -3.08 4 -5.32 4 c-0.4 0 -0.68 -0.04 -1.08 -0.2 c-0.16 -0.04 -0.6 -0.2 -0.6 -0.2 l-0.04 -0.04 l0.84 -0.4 c0.4 -0.16 0.72 -0.64 0.92 -0.92 c0.08 -0.12 0.36 -0.6 0.44 -0.72 c0.08 -0.08 0.28 -0.44 0.32 -0.52 l0.84 -1.72 l1.16 -2.72 l6.12 -17.44 c-0.52 -0.04 -1 -0.08 -1.52 -0.08 c-3.28 0 -4.8 1.4 -5.88 4.44 c-0.08 0.16 -0.4 0.2 -0.56 0.2 c-0.24 0 -0.56 -0.2 -0.56 -0.48 c1.44 -4.72 4.48 -7.68 9.52 -7.68 c0.64 0 1.32 0 1.96 0.08 l4.96 0.64 c0.12 0.04 0.8 0.08 0.96 0.08 l0.52 0 z M38.362 22.24 l0 -0.04 c0.32 0 0.56 -0.12 0.84 -0.12 c1.24 0 1.68 1.16 1.68 2.24 c0 0.08 0.04 0.28 -0.04 0.4 l-1.96 3.8 l0 0.04 l2.16 -2.08 l1.88 -1.6 c0.12 -0.08 1.04 -0.76 1.32 -0.96 c1.2 -0.84 2.76 -1.76 4.28 -1.76 c0.84 0 1.32 0.48 1.32 1.28 c0 0.76 -0.28 1.6 -0.6 2.28 l-2.24 4.6 l-0.52 1.36 c-0.16 0.44 -0.36 1.08 -0.36 1.6 c0 0.16 0 0.32 0.2 0.32 c0.68 0 1.4 -0.56 1.88 -0.96 c0.52 -0.32 2.48 -2.08 2.8 -2.56 l1.92 -2.12 l2.84 -3.52 l0.2 -0.2 c0.04 -0.04 0.16 -0.04 0.2 -0.04 c0.2 0 0.44 0.12 0.56 0.28 c0.08 0.16 0.24 0.52 0.24 0.52 l0 0.04 l-0.36 -0.04 l-2.64 3.36 l-2.96 3.32 l-1.48 1.44 c-0.08 0.08 -0.8 0.68 -1.04 0.84 c-0.96 0.76 -2.08 1.44 -3.36 1.44 c-1.72 0 -2.84 -1.28 -2.84 -2.96 c0 -0.76 0.24 -1.56 0.56 -2.24 l1.24 -2.96 c0.12 -0.28 0.16 -0.48 0.16 -0.76 c-0.16 0 -0.4 0.16 -0.56 0.28 c-0.08 0.04 -0.36 0.28 -0.4 0.28 c-0.08 0.08 -0.4 0.32 -0.48 0.4 c-0.28 0.2 -1 0.84 -1.08 0.88 l-2.52 2.44 l-3.36 3.64 c-0.4 0.44 -0.84 0.84 -1.44 0.84 c-1.2 0 -2.12 -0.88 -2.12 -2.04 c0 -1.4 0.96 -3.2 1.76 -4.4 l3.84 -5.92 z M38.842000000000006 28.6 c0.04 0 0.04 -0.04 0 -0.04 l0 0.04 z"></path></g><g id="SvgjsG1273" featurekey="sloganFeature-0" transform="matrix(0.5283995473310559,0,0,0.5283995473310559,13.89057239588873,137.8265111602057)" fill="#111"><path d="M4.043 18.2422 l4.7168 0 l0 1.7578 l-6.6602 0 l0 -13.809 l1.9434 0 l0 12.051 z M23.566982421875 20 l-1.1523 -3.2227 l-6.1719 0 l-1.1523 3.2227 l-2.0215 0 l5.0879 -13.809 l2.3438 0 l5.0879 13.809 l-2.0215 0 z M16.848382421875 15.0781 l4.9609 0 l-2.4805 -6.9629 z M38.81393984375 6.191000000000001 l0 1.748 l-3.4961 0 l0 12.061 l-1.9238 0 l0 -12.061 l-3.5059 0 l0 -1.748 l8.9258 0 z M52.185816015625 7.939 l-5.5273 0 l0 4.2969 l4.873 0 l0 1.7383 l-4.873 0 l0 4.2676 l5.5273 0 l0 1.7578 l-7.5098 0 l0 -13.809 l7.5098 0 l0 1.748 z M57.1201146875 20 l5.3809 -7.207 l-5.1465 -6.6016 l2.3535 0 l3.9551 5.2148 l3.9355 -5.2148 l2.3633 0 l-5.1563 6.6016 l5.3809 7.207 l-2.4609 0 l-4.0625 -5.6934 l-4.0723 5.6934 l-2.4707 0 z M91.97902890625 7.939 l-5.5273 0 l0 4.2969 l4.873 0 l0 1.7383 l-4.873 0 l0 4.2676 l5.5273 0 l0 1.7578 l-7.5098 0 l0 -13.809 l7.5098 0 l0 1.748 z M96.913327578125 20 l5.3809 -7.207 l-5.1465 -6.6016 l2.3535 0 l3.9551 5.2148 l3.9355 -5.2148 l2.3633 0 l-5.1563 6.6016 l5.3809 7.207 l-2.4609 0 l-4.0625 -5.6934 l-4.0723 5.6934 l-2.4707 0 z M121.154321875 6.191000000000001 c2.5293 0 4.1602 1.9141 4.1602 4.2773 c0 2.3926 -1.6309 4.2383 -4.1602 4.2383 l-3.3789 0 l0 5.293 l-1.9434 0 l0 -13.809 l5.3223 0 z M120.861321875 13.0273 c1.6211 0 2.5293 -1.0449 2.5293 -2.5879 c0 -1.4844 -0.9082 -2.5781 -2.5293 -2.5781 l-3.0859 0 l0 5.166 l3.0859 0 z M139.018335546875 7.939 l-5.5273 0 l0 4.2969 l4.873 0 l0 1.7383 l-4.873 0 l0 4.2676 l5.5273 0 l0 1.7578 l-7.5098 0 l0 -13.809 l7.5098 0 l0 1.748 z M152.99562421875 20 l-3.5742 -6.2109 l-1.9336 0 l0 6.2109 l-1.9434 0 l0 -13.809 l4.6484 0 c2.8906 0 4.209 1.7676 4.209 3.9355 c0 1.9238 -1.1328 3.2617 -3.0273 3.584 l3.8965 6.2891 l-2.2754 0 z M147.48782421875 7.871 l0 4.4336 l2.4414 0 c1.7969 0 2.6074 -0.89844 2.6074 -2.207 c0 -1.2891 -0.81055 -2.2266 -2.6074 -2.2266 l-2.4414 0 z M161.338125390625 20 l0 -13.809 l1.9434 0 l0 13.809 l-1.9434 0 z M178.2353765625 7.939 l-5.5273 0 l0 4.2969 l4.873 0 l0 1.7383 l-4.873 0 l0 4.2676 l5.5273 0 l0 1.7578 l-7.5098 0 l0 -13.809 l7.5098 0 l0 1.748 z M194.067865234375 6.191000000000001 l1.9336 0 l0 13.809 l-2.0996 0 l-7.2168 -10.957 l0 10.957 l-1.9238 0 l0 -13.809 l2.0801 0 l7.2266 10.908 l0 -10.908 z M209.38332578125 20.18555 c-3.916 0 -6.9043 -2.6855 -6.9043 -7.0996 c0 -4.3945 2.9883 -7.0801 6.9043 -7.0801 c2.793 0 5.1074 1.3867 6.1719 3.7598 l-1.7969 0.71289 c-0.80078 -1.6895 -2.4316 -2.6367 -4.375 -2.6367 c-2.7734 0 -4.9707 1.9141 -4.9707 5.2441 c0 3.3496 2.1973 5.2637 4.9707 5.2637 c1.9434 0 3.5742 -0.94727 4.375 -2.6367 l1.7969 0.72266 c-1.0645 2.3633 -3.3789 3.75 -6.1719 3.75 z M229.200464453125 7.939 l-5.5273 0 l0 4.2969 l4.873 0 l0 1.7383 l-4.873 0 l0 4.2676 l5.5273 0 l0 1.7578 l-7.5098 0 l0 -13.809 l7.5098 0 l0 1.748 z"></path></g></svg>